<mxfile host="app.diagrams.net" modified="2024-01-18T19:43:30.020Z" agent="Mozilla/5.0 (Windows NT 10.0; Win64; x64; rv:121.0) Gecko/20100101 Firefox/121.0" version="22.1.21" etag="-IHpsF9MV4S7Q-I4hYJL" type="github">
  <diagram name="Page-1" id="weEs0P_qhFg4DwT2lCEa">
    <mxGraphModel>
      <root>
        <mxCell id="0" />
        <mxCell id="1" parent="0" />
      </root>
    </mxGraphModel>
  </diagram>
</mxfile>
